<?xml version="1.0" standalone="no"?>
<!DOCTYPE svg PUBLIC "-//W3C//DTD SVG 20010904//EN"
 "http://www.w3.org/TR/2001/REC-SVG-20010904/DTD/svg10.dtd">
<svg version="1.0" xmlns="http://www.w3.org/2000/svg"
 width="900.000000pt" height="900.000000pt" viewBox="0 0 900.000000 900.000000"
 preserveAspectRatio="xMidYMid meet">
<metadata>
Created by potrace 1.11, written by Peter Selinger 2001-2013
</metadata>
<g transform="translate(0.000000,900.000000) scale(0.100000,-0.100000)"
fill="#000000" stroke="none">
<path d="M4008 7935 c-58 -32 -91 -130 -68 -201 7 -22 28 -61 47 -89 75 -112
90 -247 53 -490 -11 -71 -27 -184 -35 -250 -9 -66 -18 -130 -20 -141 -5 -21
-11 -19 -141 37 -376 162 -723 248 -1000 249 -201 0 -317 -32 -347 -96 -27
-55 -22 -122 12 -176 41 -65 136 -124 474 -294 158 -79 287 -148 287 -152 0
-5 -48 -71 -106 -147 -319 -420 -386 -518 -469 -690 -62 -127 -95 -236 -95
-313 0 -51 1 -53 23 -46 51 16 229 112 461 249 418 246 575 315 720 315 124 0
214 -47 301 -157 46 -59 147 -254 181 -350 l18 -53 81 158 c45 86 256 496 469
910 214 414 387 754 385 756 -7 6 -400 -64 -564 -100 -146 -32 -329 -78 -364
-92 -18 -7 -11 79 26 316 57 369 30 554 -110 755 -65 94 -150 129 -219 92z"/>
<path d="M2741 6145 c-675 -349 -1167 -908 -1375 -1563 -77 -244 -107 -452
-107 -738 0 -227 18 -408 61 -624 105 -527 274 -850 612 -1175 402 -388 969
-662 1798 -870 184 -46 439 -100 444 -94 11 13 1448 2500 1755 3039 230 403
564 989 584 1025 31 57 239 420 259 452 l19 32 -89 74 c-179 149 -414 303
-623 407 -150 76 -211 101 -202 85 5 -7 87 -100 184 -207 372 -407 477 -547
495 -658 9 -54 -18 -113 -63 -141 -57 -35 -133 -23 -570 95 -407 109 -659 166
-824 186 -109 14 -273 10 -289 -6 -17 -17 -38 -162 -60 -419 -34 -389 -59
-495 -134 -571 -79 -80 -175 -79 -265 2 -65 58 -120 171 -210 431 -135 389
-201 517 -288 558 -32 15 -43 16 -90 5 -120 -27 -226 -80 -613 -308 -440 -261
-574 -305 -691 -227 -102 67 -116 250 -36 494 52 162 195 407 383 657 93 124
108 144 102 144 -2 0 -77 -39 -167 -85z"/>
</g>
</svg>
