<svg data-v-1084b650="" xmlns="http://www.w3.org/2000/svg" viewBox="0 0 300 300"><!----> <!----> <rect data-v-1084b650="" fill="#ffffff" x="0" y="0" width="300px" height="300px" class="logo-background-square"></rect> <!----> <g data-v-1084b650="" id="b6942753-4347-21c5-3b8c-abdddb5db1d8" fill="#000000"><path d=""></path></g> <linearGradient data-v-1084b650="" gradientTransform="rotate(25)" id="9b80a846-aa9f-be60-2e26-4fe695ccd4df" x1="0%" y1="0%" x2="100%" y2="0%"><stop data-v-1084b650="" offset="0%" style="stop-color: rgb(18, 38, 99); stop-opacity: 1;"></stop> <stop data-v-1084b650="" offset="100%" style="stop-color: rgb(93, 215, 173); stop-opacity: 1;"></stop></linearGradient> <g data-v-1084b650="" id="c18cb0ab-44af-abb5-a8db-60dde53593b6" fill="url(#9b80a846-aa9f-be60-2e26-4fe695ccd4df)" stroke="none"><svg xmlns="http://www.w3.org/2000/svg" viewBox="0 0 100 100"><path d="M33.077 27.942c.308.153.655.326 1.019.509l2.296 1.126c-.355.492-.624.957-1.707 2.325-2.138 2.7-6.077 7.674-5.849 11.137 1.032-.202 3.505-1.689 5.196-2.708 3.144-1.893 6.113-3.681 8.296-3.681h.021c3.32.019 4.741 4.207 5.995 7.902.39 1.147.937 2.764 1.39 3.533.29-1.005.449-3.068.554-4.402.16-2.062.312-4.011.776-5.299 1.152-3.18 7.52-1.705 16.391.726.699.192 1.356.372 1.94.526-1.333-1.716-3.746-4.327-5.234-5.937-1.702-1.842-3.068-3.564-3.676-4.433.51-.333 1.079-.684 1.541-.969 2.598-1.598 4.086-2.562 4.461-3.797a1.757 1.757 0 0 0-.2-1.457c-.505-.783-1.456-.909-1.77-.951-3.062-.406-12.854 1.427-16.77 2.67.408-4.805 1.972-8.129-.823-12.009-1.954-2.711-4.21.099-2.819 2.03 1.934 2.683.659 4.966.126 10.278-.176-.076-.367-.16-.57-.25-1.188-.526-2.81-1.245-5.365-2.023-1.621-.494-3.142-.837-4.518-1.02-3.556-.471-5.159.257-5.443.408l-.421.223-.218.423a1.753 1.753 0 0 0-.101 1.358c.369 1.133 1.719 1.889 5.482 3.762z"></path><path d="M64.999 30.876c.305.375.63.759.982 1.14 6.025 6.517 7.434 8.346 6.631 9.766-.171.302-.702.978-1.976.715-.9-.186-2.263-.56-3.84-.992-2.559-.702-5.742-1.574-8.477-2.069-3.877-.702-4.794-.256-4.939-.159-.34.984-.482 2.821-.62 4.599-.282 3.629-.521 5.895-1.837 6.745-.316.204-.67.309-1.038.309-.237 0-.479-.043-.718-.131-1.512-.544-2.246-2.709-3.175-5.449-.889-2.62-2.107-6.208-3.657-6.217h-.01c-1.491 0-4.553 1.844-7.014 3.326-3.892 2.343-6.17 3.631-7.759 2.86-.373-.181-1.021-.647-1.157-1.729-.544-4.326 3.424-9.534 6.028-12.831-9.964 4.359-16.742 12.703-18.205 22.458-.977 6.518.7 15.043 3.456 19.47 3.283 5.271 8.783 9.41 16.951 12.261 3.91 1.364 9.208 2.862 14.19 3.516 19.747 2.594 34.822-9.172 37.02-25.753 1.754-13.227-6.924-25.96-20.836-31.835zm15.697 31.13c-.329 1.646-1.117 4.933-2.694 8.439-2.689 5.977-8.595 8.816-9.785 8.659h-.001a1.04 1.04 0 0 1-.29-.082.915.915 0 0 1-.542-.742c-.063-.601.312-.879 1.219-1.551 1.58-1.169 4.87-3.603 6.666-7.595 1.479-3.288 2.409-6.67 3.026-8.907.725-2.633.943-3.426 1.915-3.298l.129.018.137.058c.447.203 1.122.506.22 5.001z"></path></svg></g></svg>